<mxfile host="app.diagrams.net" modified="2023-03-21T22:32:35.935Z" agent="5.0 (Windows NT 10.0; Win64; x64) AppleWebKit/537.36 (KHTML, like Gecko) Chrome/111.0.0.0 Safari/537.36" etag="hzGNjz0C3oAITaL8FV-3" version="21.0.10" type="github">
  <diagram name="Página-1" id="3FifKVwkMWUHJ1Q0O7kE">
    <mxGraphModel dx="1434" dy="796" grid="1" gridSize="10" guides="1" tooltips="1" connect="1" arrows="1" fold="1" page="1" pageScale="1" pageWidth="827" pageHeight="1169" math="0" shadow="0">
      <root>
        <mxCell id="0" />
        <mxCell id="1" parent="0" />
        <mxCell id="JQtAplhxwxhWDhZuJPq9-10" value="Cliente" style="shape=umlActor;verticalLabelPosition=bottom;verticalAlign=top;html=1;outlineConnect=0;" vertex="1" parent="1">
          <mxGeometry x="90" y="140" width="60" height="100" as="geometry" />
        </mxCell>
        <mxCell id="JQtAplhxwxhWDhZuJPq9-11" value="Caixa Eletrônico" style="shape=umlActor;verticalLabelPosition=bottom;verticalAlign=top;html=1;outlineConnect=0;" vertex="1" parent="1">
          <mxGeometry x="440" y="150" width="50" height="90" as="geometry" />
        </mxCell>
        <mxCell id="JQtAplhxwxhWDhZuJPq9-12" value="Funcionário" style="shape=umlActor;verticalLabelPosition=bottom;verticalAlign=top;html=1;outlineConnect=0;" vertex="1" parent="1">
          <mxGeometry x="250" y="330" width="50" height="90" as="geometry" />
        </mxCell>
      </root>
    </mxGraphModel>
  </diagram>
</mxfile>
